<svg width="512" height="512" viewBox="0 0 512 512" fill="none" xmlns="http://www.w3.org/2000/svg" role="img" aria-label="Project Ascension app icon">
  <defs>
    <linearGradient id="bg" x1="0" y1="0" x2="1" y2="1">
      <stop offset="0" stop-color="#0b1020"/>
      <stop offset="1" stop-color="#131a33"/>
    </linearGradient>
    <linearGradient id="core" x1="0" y1="0" x2="1" y2="1">
      <stop offset="0" stop-color="#5eead4"/>
      <stop offset="0.5" stop-color="#38bdf8"/>
      <stop offset="1" stop-color="#a855f7"/>
    </linearGradient>
    <linearGradient id="edge" x1="0" y1="1" x2="1" y2="0">
      <stop offset="0" stop-color="#c084fc"/>
      <stop offset="1" stop-color="#22d3ee"/>
    </linearGradient>
    <radialGradient id="glow" cx="0.5" cy="0.42" r="0.55">
      <stop offset="0" stop-color="#38bdf8" stop-opacity="0.5"/>
      <stop offset="1" stop-color="#38bdf8" stop-opacity="0"/>
    </radialGradient>
  </defs>

  <rect width="512" height="512" rx="112" fill="url(#bg)"/>
  <circle cx="256" cy="246" r="180" fill="url(#glow)"/>

  <path d="M256 118 L380 322 L256 268 L132 322 Z" fill="url(#core)"/>
  <path d="M256 118 L256 268 L132 322 Z" fill="#0b1020" fill-opacity="0.18"/>
  <path d="M256 118 L380 322 L256 268 Z" fill="#ffffff" fill-opacity="0.10"/>
  <path d="M256 118 L380 322 L256 268 L132 322 Z" fill="none" stroke="url(#edge)" stroke-width="4" stroke-linejoin="round"/>

  <path d="M180 350 L332 350 L300 384 L212 384 Z" fill="url(#edge)" opacity="0.9"/>
  <path d="M210 402 L302 402 L282 426 L230 426 Z" fill="url(#edge)" opacity="0.55"/>

  <circle cx="256" cy="246" r="16" fill="#ffffff"/>
  <circle cx="256" cy="246" r="27" fill="none" stroke="#e0f2fe" stroke-width="3" opacity="0.5"/>
</svg>
